<?xml version="1.0" encoding="us-ascii" standalone="no"?><svg xmlns="http://www.w3.org/2000/svg" xmlns:xlink="http://www.w3.org/1999/xlink" contentStyleType="text/css" height="1376px" preserveAspectRatio="none" style="width:1672px;height:1376px;background:#FFFFFF;" version="1.1" viewBox="0 0 1672 1376" width="1672px" zoomAndPan="magnify"><defs/><g><rect fill="none" height="20.9531" style="stroke:none;stroke-width:1.0;" width="1639" x="15" y="12.7451"/><ellipse cx="285.5" cy="48.6982" fill="#222222" rx="10" ry="10" style="stroke:#222222;stroke-width:1.0;"/><rect fill="#F1F1F1" height="33.9688" rx="12.5" ry="12.5" style="stroke:#181818;stroke-width:0.5;" width="218" x="176.5" y="78.6982"/><text fill="#000000" font-family="sans-serif" font-size="12" lengthAdjust="spacing" textLength="198" x="186.5" y="99.8369">&#1042;&#1089;&#1090;&#1072;&#1085;&#1086;&#1074;&#1083;&#1077;&#1085;&#1085;&#1103; &#1076;&#1086;&#1076;&#1072;&#1090;&#1082;&#1091; &#1075;&#1086;&#1090;&#1077;&#1083;&#1102;</text><rect fill="#F1F1F1" height="33.9688" rx="12.5" ry="12.5" style="stroke:#181818;stroke-width:0.5;" width="122" x="224.5" y="132.667"/><text fill="#000000" font-family="sans-serif" font-size="12" lengthAdjust="spacing" textLength="102" x="234.5" y="153.8057">&#1047;&#1072;&#1087;&#1091;&#1089;&#1082; &#1076;&#1086;&#1076;&#1072;&#1090;&#1082;&#1091;</text><rect fill="#F1F1F1" height="33.9688" rx="12.5" ry="12.5" style="stroke:#181818;stroke-width:0.5;" width="159" x="206" y="186.6357"/><text fill="#000000" font-family="sans-serif" font-size="12" lengthAdjust="spacing" textLength="139" x="216" y="207.7744">&#1042;&#1080;&#1073;&#1110;&#1088; &#1087;&#1086;&#1096;&#1091;&#1082;&#1091; &#1085;&#1086;&#1084;&#1077;&#1088;&#1072;</text><rect fill="#F1F1F1" height="33.9688" rx="12.5" ry="12.5" style="stroke:#181818;stroke-width:0.5;" width="141" x="215" y="240.6045"/><text fill="#000000" font-family="sans-serif" font-size="12" lengthAdjust="spacing" textLength="121" x="225" y="261.7432">&#1042;&#1080;&#1073;&#1110;&#1088; &#1085;&#1086;&#1084;&#1077;&#1088;&#1072; &#1110; &#1076;&#1072;&#1090;</text><rect fill="#F1F1F1" height="33.9688" rx="12.5" ry="12.5" style="stroke:#181818;stroke-width:0.5;" width="142" x="214.5" y="294.5732"/><text fill="#000000" font-family="sans-serif" font-size="12" lengthAdjust="spacing" textLength="122" x="224.5" y="315.7119">&#1055;&#1077;&#1088;&#1077;&#1093;&#1110;&#1076; &#1076;&#1086; &#1086;&#1087;&#1083;&#1072;&#1090;&#1080;</text><polygon fill="#F1F1F1" points="234.5,348.542,336.5,348.542,348.5,360.542,336.5,372.542,234.5,372.542,222.5,360.542,234.5,348.542" style="stroke:#181818;stroke-width:0.5;"/><text fill="#000000" font-family="sans-serif" font-size="11" lengthAdjust="spacing" textLength="102" x="234.5" y="364.3501">&#1054;&#1087;&#1083;&#1072;&#1090;&#1072; &#1091;&#1089;&#1087;&#1110;&#1096;&#1085;&#1072;?</text><text fill="#000000" font-family="sans-serif" font-size="11" lengthAdjust="spacing" textLength="21" x="201.5" y="357.9478">&#1090;&#1072;&#1082;</text><text fill="#000000" font-family="sans-serif" font-size="11" lengthAdjust="spacing" textLength="10" x="348.5" y="357.9478">&#1085;&#1110;</text><rect fill="#F1F1F1" height="33.9688" rx="12.5" ry="12.5" style="stroke:#181818;stroke-width:0.5;" width="280" x="21" y="382.542"/><text fill="#000000" font-family="sans-serif" font-size="12" lengthAdjust="spacing" textLength="260" x="31" y="403.6807">&#1054;&#1090;&#1088;&#1080;&#1084;&#1072;&#1085;&#1085;&#1103; &#1087;&#1110;&#1076;&#1090;&#1074;&#1077;&#1088;&#1076;&#1078;&#1077;&#1085;&#1085;&#1103; &#1073;&#1088;&#1086;&#1085;&#1102;&#1074;&#1072;&#1085;&#1085;&#1103;</text><rect fill="#F1F1F1" height="33.9688" rx="12.5" ry="12.5" style="stroke:#181818;stroke-width:0.5;" width="168" x="77" y="436.5107"/><text fill="#000000" font-family="sans-serif" font-size="12" lengthAdjust="spacing" textLength="148" x="87" y="457.6494">&#1042;&#1110;&#1076;&#1089;&#1090;&#1077;&#1078;&#1077;&#1085;&#1085;&#1103; &#1076;&#1086;&#1089;&#1090;&#1072;&#1074;&#1082;&#1080;</text><rect fill="#F1F1F1" height="33.9688" rx="12.5" ry="12.5" style="stroke:#181818;stroke-width:0.5;" width="178" x="321" y="382.542"/><text fill="#000000" font-family="sans-serif" font-size="12" lengthAdjust="spacing" textLength="158" x="331" y="403.6807">&#1055;&#1086;&#1074;&#1077;&#1088;&#1085;&#1077;&#1085;&#1085;&#1103; &#1076;&#1086; &#1076;&#1086;&#1076;&#1072;&#1090;&#1082;&#1091;</text><polygon fill="#F1F1F1" points="285.5,476.4795,297.5,488.4795,285.5,500.4795,273.5,488.4795,285.5,476.4795" style="stroke:#181818;stroke-width:0.5;"/><ellipse cx="285.5" cy="531.4795" fill="none" rx="11" ry="11" style="stroke:#222222;stroke-width:1.0;"/><ellipse cx="285.5" cy="531.4795" fill="#222222" rx="6" ry="6" style="stroke:#222222;stroke-width:1.0;"/><line style="stroke:#000000;stroke-width:1.5;" x1="15" x2="15" y1="12.7451" y2="1364.1982"/><ellipse cx="714" cy="562.4795" fill="#222222" rx="10" ry="10" style="stroke:#222222;stroke-width:1.0;"/><rect fill="#F1F1F1" height="33.9688" rx="12.5" ry="12.5" style="stroke:#181818;stroke-width:0.5;" width="115" x="656.5" y="592.4795"/><text fill="#000000" font-family="sans-serif" font-size="12" lengthAdjust="spacing" textLength="95" x="666.5" y="613.6182">&#1042;&#1093;&#1110;&#1076; &#1074; &#1089;&#1080;&#1089;&#1090;&#1077;&#1084;&#1091;</text><rect fill="#F1F1F1" height="33.9688" rx="12.5" ry="12.5" style="stroke:#181818;stroke-width:0.5;" width="203" x="612.5" y="646.4482"/><text fill="#000000" font-family="sans-serif" font-size="12" lengthAdjust="spacing" textLength="183" x="622.5" y="667.5869">&#1055;&#1077;&#1088;&#1077;&#1075;&#1083;&#1103;&#1076; &#1085;&#1072;&#1103;&#1074;&#1085;&#1086;&#1089;&#1090;&#1110; &#1085;&#1086;&#1084;&#1077;&#1088;&#1110;&#1074;</text><rect fill="#F1F1F1" height="33.9688" rx="12.5" ry="12.5" style="stroke:#181818;stroke-width:0.5;" width="103" x="662.5" y="700.417"/><text fill="#000000" font-family="sans-serif" font-size="12" lengthAdjust="spacing" textLength="83" x="672.5" y="721.5557">&#1040;&#1085;&#1072;&#1083;&#1110;&#1079; &#1076;&#1072;&#1085;&#1080;&#1093;</text><rect fill="#F1F1F1" height="33.9688" rx="12.5" ry="12.5" style="stroke:#181818;stroke-width:0.5;" width="167" x="630.5" y="754.3857"/><text fill="#000000" font-family="sans-serif" font-size="12" lengthAdjust="spacing" textLength="147" x="640.5" y="775.5244">&#1055;&#1083;&#1072;&#1085;&#1091;&#1074;&#1072;&#1085;&#1085;&#1103; &#1079;&#1072;&#1082;&#1091;&#1087;&#1110;&#1074;&#1077;&#1083;&#1100;</text><polygon fill="#F1F1F1" points="648.5,808.3545,779.5,808.3545,791.5,820.3545,779.5,832.3545,648.5,832.3545,636.5,820.3545,648.5,808.3545" style="stroke:#181818;stroke-width:0.5;"/><text fill="#000000" font-family="sans-serif" font-size="11" lengthAdjust="spacing" textLength="131" x="648.5" y="824.1626">&#1047;&#1072;&#1084;&#1086;&#1074;&#1083;&#1077;&#1085;&#1085;&#1103; &#1091;&#1089;&#1087;&#1110;&#1096;&#1085;&#1077;?</text><text fill="#000000" font-family="sans-serif" font-size="11" lengthAdjust="spacing" textLength="21" x="615.5" y="817.7603">&#1090;&#1072;&#1082;</text><text fill="#000000" font-family="sans-serif" font-size="11" lengthAdjust="spacing" textLength="10" x="791.5" y="817.7603">&#1085;&#1110;</text><rect fill="#F1F1F1" height="33.9688" rx="12.5" ry="12.5" style="stroke:#181818;stroke-width:0.5;" width="169" x="516.5" y="842.3545"/><text fill="#000000" font-family="sans-serif" font-size="12" lengthAdjust="spacing" textLength="149" x="526.5" y="863.4932">&#1057;&#1090;&#1074;&#1086;&#1088;&#1077;&#1085;&#1085;&#1103; &#1079;&#1072;&#1084;&#1086;&#1074;&#1083;&#1077;&#1085;&#1085;&#1103;</text><rect fill="#F1F1F1" height="33.9688" rx="12.5" ry="12.5" style="stroke:#181818;stroke-width:0.5;" width="184" x="509" y="896.3232"/><text fill="#000000" font-family="sans-serif" font-size="12" lengthAdjust="spacing" textLength="164" x="519" y="917.4619">&#1042;&#1110;&#1076;&#1089;&#1090;&#1077;&#1078;&#1077;&#1085;&#1085;&#1103; &#1079;&#1072;&#1084;&#1086;&#1074;&#1083;&#1077;&#1085;&#1085;&#1103;</text><rect fill="#F1F1F1" height="33.9688" rx="12.5" ry="12.5" style="stroke:#181818;stroke-width:0.5;" width="228" x="713" y="842.3545"/><text fill="#000000" font-family="sans-serif" font-size="12" lengthAdjust="spacing" textLength="208" x="723" y="863.4932">&#1055;&#1086;&#1074;&#1090;&#1086;&#1088;&#1085;&#1077; &#1074;&#1093;&#1086;&#1076;&#1078;&#1077;&#1085;&#1085;&#1103; &#1074; &#1089;&#1080;&#1089;&#1090;&#1077;&#1084;&#1091;</text><polygon fill="#F1F1F1" points="714,936.292,726,948.292,714,960.292,702,948.292,714,936.292" style="stroke:#181818;stroke-width:0.5;"/><ellipse cx="714" cy="991.292" fill="none" rx="11" ry="11" style="stroke:#222222;stroke-width:1.0;"/><ellipse cx="714" cy="991.292" fill="#222222" rx="6" ry="6" style="stroke:#222222;stroke-width:1.0;"/><line style="stroke:#000000;stroke-width:1.5;" x1="503" x2="503" y1="12.7451" y2="1364.1982"/><ellipse cx="1342.75" cy="1022.292" fill="#222222" rx="10" ry="10" style="stroke:#222222;stroke-width:1.0;"/><rect fill="#F1F1F1" height="33.9688" rx="12.5" ry="12.5" style="stroke:#181818;stroke-width:0.5;" width="195" x="1245.25" y="1052.292"/><text fill="#000000" font-family="sans-serif" font-size="12" lengthAdjust="spacing" textLength="175" x="1255.25" y="1073.4307">&#1063;&#1077;&#1082;&#1072;&#1085;&#1085;&#1103; &#1085;&#1072; &#1079;&#1072;&#1087;&#1080;&#1090; &#1074;&#1110;&#1076; &#1075;&#1086;&#1089;&#1090;&#1103;</text><polygon fill="#F1F1F1" points="1291.75,1106.2607,1393.75,1106.2607,1405.75,1118.2607,1393.75,1130.2607,1291.75,1130.2607,1279.75,1118.2607,1291.75,1106.2607" style="stroke:#181818;stroke-width:0.5;"/><text fill="#000000" font-family="sans-serif" font-size="11" lengthAdjust="spacing" textLength="102" x="1291.75" y="1122.0688">&#1047;&#1072;&#1087;&#1080;&#1090; &#1086;&#1090;&#1088;&#1080;&#1084;&#1072;&#1085;&#1086;?</text><text fill="#000000" font-family="sans-serif" font-size="11" lengthAdjust="spacing" textLength="21" x="1258.75" y="1115.6665">&#1090;&#1072;&#1082;</text><text fill="#000000" font-family="sans-serif" font-size="11" lengthAdjust="spacing" textLength="10" x="1405.75" y="1115.6665">&#1085;&#1110;</text><rect fill="#F1F1F1" height="33.9688" rx="12.5" ry="12.5" style="stroke:#181818;stroke-width:0.5;" width="151" x="1064.5" y="1140.2607"/><text fill="#000000" font-family="sans-serif" font-size="12" lengthAdjust="spacing" textLength="131" x="1074.5" y="1161.3994">&#1056;&#1077;&#1072;&#1075;&#1091;&#1074;&#1072;&#1085;&#1085;&#1103; &#1085;&#1072; &#1079;&#1072;&#1087;&#1080;&#1090;</text><polygon fill="#F1F1F1" points="1061,1194.2295,1219,1194.2295,1231,1206.2295,1219,1218.2295,1061,1218.2295,1049,1206.2295,1061,1194.2295" style="stroke:#181818;stroke-width:0.5;"/><text fill="#000000" font-family="sans-serif" font-size="11" lengthAdjust="spacing" textLength="158" x="1061" y="1210.0376">&#1047;&#1072;&#1087;&#1080;&#1090; &#1084;&#1086;&#1078;&#1083;&#1080;&#1074;&#1086; &#1074;&#1080;&#1082;&#1086;&#1085;&#1072;&#1090;&#1080;?</text><text fill="#000000" font-family="sans-serif" font-size="11" lengthAdjust="spacing" textLength="21" x="1028" y="1203.6353">&#1090;&#1072;&#1082;</text><text fill="#000000" font-family="sans-serif" font-size="11" lengthAdjust="spacing" textLength="10" x="1231" y="1203.6353">&#1085;&#1110;</text><rect fill="#F1F1F1" height="33.9688" rx="12.5" ry="12.5" style="stroke:#181818;stroke-width:0.5;" width="137" x="951" y="1228.2295"/><text fill="#000000" font-family="sans-serif" font-size="12" lengthAdjust="spacing" textLength="117" x="961" y="1249.3682">&#1042;&#1080;&#1082;&#1086;&#1085;&#1072;&#1085;&#1085;&#1103; &#1079;&#1072;&#1087;&#1080;&#1090;&#1091;</text><rect fill="#F1F1F1" height="33.9688" rx="12.5" ry="12.5" style="stroke:#181818;stroke-width:0.5;" width="305" x="1108" y="1228.2295"/><text fill="#000000" font-family="sans-serif" font-size="12" lengthAdjust="spacing" textLength="285" x="1118" y="1249.3682">&#1055;&#1086;&#1074;&#1110;&#1076;&#1086;&#1084;&#1083;&#1077;&#1085;&#1085;&#1103; &#1087;&#1088;&#1086; &#1085;&#1077;&#1084;&#1086;&#1078;&#1083;&#1080;&#1074;&#1110;&#1089;&#1090;&#1100; &#1074;&#1080;&#1082;&#1086;&#1085;&#1072;&#1085;&#1085;&#1103;</text><polygon fill="#F1F1F1" points="1140,1268.1982,1152,1280.1982,1140,1292.1982,1128,1280.1982,1140,1268.1982" style="stroke:#181818;stroke-width:0.5;"/><rect fill="#F1F1F1" height="33.9688" rx="12.5" ry="12.5" style="stroke:#181818;stroke-width:0.5;" width="205" x="1443" y="1140.2607"/><text fill="#000000" font-family="sans-serif" font-size="12" lengthAdjust="spacing" textLength="185" x="1453" y="1161.3994">&#1063;&#1077;&#1082;&#1072;&#1085;&#1085;&#1103; &#1085;&#1072; &#1085;&#1072;&#1089;&#1090;&#1091;&#1087;&#1085;&#1080;&#1081; &#1079;&#1072;&#1087;&#1080;&#1090;</text><polygon fill="#F1F1F1" points="1342.75,1298.1982,1354.75,1310.1982,1342.75,1322.1982,1330.75,1310.1982,1342.75,1298.1982" style="stroke:#181818;stroke-width:0.5;"/><ellipse cx="1342.75" cy="1353.1982" fill="none" rx="11" ry="11" style="stroke:#222222;stroke-width:1.0;"/><ellipse cx="1342.75" cy="1353.1982" fill="#222222" rx="6" ry="6" style="stroke:#222222;stroke-width:1.0;"/><line style="stroke:#000000;stroke-width:1.5;" x1="945" x2="945" y1="12.7451" y2="1364.1982"/><line style="stroke:#000000;stroke-width:1.5;" x1="1652" x2="1652" y1="12.7451" y2="1364.1982"/><line style="stroke:#181818;stroke-width:1.0;" x1="285.5" x2="285.5" y1="58.6982" y2="78.6982"/><polygon fill="#181818" points="281.5,68.6982,285.5,78.6982,289.5,68.6982,285.5,72.6982" style="stroke:#181818;stroke-width:1.0;"/><line style="stroke:#181818;stroke-width:1.0;" x1="285.5" x2="285.5" y1="112.667" y2="132.667"/><polygon fill="#181818" points="281.5,122.667,285.5,132.667,289.5,122.667,285.5,126.667" style="stroke:#181818;stroke-width:1.0;"/><line style="stroke:#181818;stroke-width:1.0;" x1="285.5" x2="285.5" y1="166.6357" y2="186.6357"/><polygon fill="#181818" points="281.5,176.6357,285.5,186.6357,289.5,176.6357,285.5,180.6357" style="stroke:#181818;stroke-width:1.0;"/><line style="stroke:#181818;stroke-width:1.0;" x1="285.5" x2="285.5" y1="220.6045" y2="240.6045"/><polygon fill="#181818" points="281.5,230.6045,285.5,240.6045,289.5,230.6045,285.5,234.6045" style="stroke:#181818;stroke-width:1.0;"/><line style="stroke:#181818;stroke-width:1.0;" x1="285.5" x2="285.5" y1="274.5732" y2="294.5732"/><polygon fill="#181818" points="281.5,284.5732,285.5,294.5732,289.5,284.5732,285.5,288.5732" style="stroke:#181818;stroke-width:1.0;"/><line style="stroke:#181818;stroke-width:1.0;" x1="161" x2="161" y1="416.5107" y2="436.5107"/><polygon fill="#181818" points="157,426.5107,161,436.5107,165,426.5107,161,430.5107" style="stroke:#181818;stroke-width:1.0;"/><line style="stroke:#181818;stroke-width:1.0;" x1="222.5" x2="161" y1="360.542" y2="360.542"/><line style="stroke:#181818;stroke-width:1.0;" x1="161" x2="161" y1="360.542" y2="382.542"/><polygon fill="#181818" points="157,372.542,161,382.542,165,372.542,161,376.542" style="stroke:#181818;stroke-width:1.0;"/><line style="stroke:#181818;stroke-width:1.0;" x1="348.5" x2="410" y1="360.542" y2="360.542"/><line style="stroke:#181818;stroke-width:1.0;" x1="410" x2="410" y1="360.542" y2="382.542"/><polygon fill="#181818" points="406,372.542,410,382.542,414,372.542,410,376.542" style="stroke:#181818;stroke-width:1.0;"/><line style="stroke:#181818;stroke-width:1.0;" x1="161" x2="161" y1="470.4795" y2="488.4795"/><line style="stroke:#181818;stroke-width:1.0;" x1="161" x2="273.5" y1="488.4795" y2="488.4795"/><polygon fill="#181818" points="263.5,484.4795,273.5,488.4795,263.5,492.4795,267.5,488.4795" style="stroke:#181818;stroke-width:1.0;"/><line style="stroke:#181818;stroke-width:1.0;" x1="410" x2="410" y1="416.5107" y2="488.4795"/><line style="stroke:#181818;stroke-width:1.0;" x1="410" x2="297.5" y1="488.4795" y2="488.4795"/><polygon fill="#181818" points="307.5,484.4795,297.5,488.4795,307.5,492.4795,303.5,488.4795" style="stroke:#181818;stroke-width:1.0;"/><line style="stroke:#181818;stroke-width:1.0;" x1="285.5" x2="285.5" y1="328.542" y2="348.542"/><polygon fill="#181818" points="281.5,338.542,285.5,348.542,289.5,338.542,285.5,342.542" style="stroke:#181818;stroke-width:1.0;"/><line style="stroke:#181818;stroke-width:1.0;" x1="285.5" x2="285.5" y1="500.4795" y2="520.4795"/><polygon fill="#181818" points="281.5,510.4795,285.5,520.4795,289.5,510.4795,285.5,514.4795" style="stroke:#181818;stroke-width:1.0;"/><line style="stroke:#181818;stroke-width:1.0;" x1="714" x2="714" y1="572.4795" y2="592.4795"/><polygon fill="#181818" points="710,582.4795,714,592.4795,718,582.4795,714,586.4795" style="stroke:#181818;stroke-width:1.0;"/><line style="stroke:#181818;stroke-width:1.0;" x1="714" x2="714" y1="626.4482" y2="646.4482"/><polygon fill="#181818" points="710,636.4482,714,646.4482,718,636.4482,714,640.4482" style="stroke:#181818;stroke-width:1.0;"/><line style="stroke:#181818;stroke-width:1.0;" x1="714" x2="714" y1="680.417" y2="700.417"/><polygon fill="#181818" points="710,690.417,714,700.417,718,690.417,714,694.417" style="stroke:#181818;stroke-width:1.0;"/><line style="stroke:#181818;stroke-width:1.0;" x1="714" x2="714" y1="734.3857" y2="754.3857"/><polygon fill="#181818" points="710,744.3857,714,754.3857,718,744.3857,714,748.3857" style="stroke:#181818;stroke-width:1.0;"/><line style="stroke:#181818;stroke-width:1.0;" x1="601" x2="601" y1="876.3232" y2="896.3232"/><polygon fill="#181818" points="597,886.3232,601,896.3232,605,886.3232,601,890.3232" style="stroke:#181818;stroke-width:1.0;"/><line style="stroke:#181818;stroke-width:1.0;" x1="636.5" x2="601" y1="820.3545" y2="820.3545"/><line style="stroke:#181818;stroke-width:1.0;" x1="601" x2="601" y1="820.3545" y2="842.3545"/><polygon fill="#181818" points="597,832.3545,601,842.3545,605,832.3545,601,836.3545" style="stroke:#181818;stroke-width:1.0;"/><line style="stroke:#181818;stroke-width:1.0;" x1="791.5" x2="827" y1="820.3545" y2="820.3545"/><line style="stroke:#181818;stroke-width:1.0;" x1="827" x2="827" y1="820.3545" y2="842.3545"/><polygon fill="#181818" points="823,832.3545,827,842.3545,831,832.3545,827,836.3545" style="stroke:#181818;stroke-width:1.0;"/><line style="stroke:#181818;stroke-width:1.0;" x1="601" x2="601" y1="930.292" y2="948.292"/><line style="stroke:#181818;stroke-width:1.0;" x1="601" x2="702" y1="948.292" y2="948.292"/><polygon fill="#181818" points="692,944.292,702,948.292,692,952.292,696,948.292" style="stroke:#181818;stroke-width:1.0;"/><line style="stroke:#181818;stroke-width:1.0;" x1="827" x2="827" y1="876.3232" y2="948.292"/><line style="stroke:#181818;stroke-width:1.0;" x1="827" x2="726" y1="948.292" y2="948.292"/><polygon fill="#181818" points="736,944.292,726,948.292,736,952.292,732,948.292" style="stroke:#181818;stroke-width:1.0;"/><line style="stroke:#181818;stroke-width:1.0;" x1="714" x2="714" y1="788.3545" y2="808.3545"/><polygon fill="#181818" points="710,798.3545,714,808.3545,718,798.3545,714,802.3545" style="stroke:#181818;stroke-width:1.0;"/><line style="stroke:#181818;stroke-width:1.0;" x1="714" x2="714" y1="960.292" y2="980.292"/><polygon fill="#181818" points="710,970.292,714,980.292,718,970.292,714,974.292" style="stroke:#181818;stroke-width:1.0;"/><line style="stroke:#181818;stroke-width:1.0;" x1="1342.75" x2="1342.75" y1="1032.292" y2="1052.292"/><polygon fill="#181818" points="1338.75,1042.292,1342.75,1052.292,1346.75,1042.292,1342.75,1046.292" style="stroke:#181818;stroke-width:1.0;"/><line style="stroke:#181818;stroke-width:1.0;" x1="1049" x2="1019.5" y1="1206.2295" y2="1206.2295"/><line style="stroke:#181818;stroke-width:1.0;" x1="1019.5" x2="1019.5" y1="1206.2295" y2="1228.2295"/><polygon fill="#181818" points="1015.5,1218.2295,1019.5,1228.2295,1023.5,1218.2295,1019.5,1222.2295" style="stroke:#181818;stroke-width:1.0;"/><line style="stroke:#181818;stroke-width:1.0;" x1="1231" x2="1260.5" y1="1206.2295" y2="1206.2295"/><line style="stroke:#181818;stroke-width:1.0;" x1="1260.5" x2="1260.5" y1="1206.2295" y2="1228.2295"/><polygon fill="#181818" points="1256.5,1218.2295,1260.5,1228.2295,1264.5,1218.2295,1260.5,1222.2295" style="stroke:#181818;stroke-width:1.0;"/><line style="stroke:#181818;stroke-width:1.0;" x1="1019.5" x2="1019.5" y1="1262.1982" y2="1280.1982"/><line style="stroke:#181818;stroke-width:1.0;" x1="1019.5" x2="1128" y1="1280.1982" y2="1280.1982"/><polygon fill="#181818" points="1118,1276.1982,1128,1280.1982,1118,1284.1982,1122,1280.1982" style="stroke:#181818;stroke-width:1.0;"/><line style="stroke:#181818;stroke-width:1.0;" x1="1260.5" x2="1260.5" y1="1262.1982" y2="1280.1982"/><line style="stroke:#181818;stroke-width:1.0;" x1="1260.5" x2="1152" y1="1280.1982" y2="1280.1982"/><polygon fill="#181818" points="1162,1276.1982,1152,1280.1982,1162,1284.1982,1158,1280.1982" style="stroke:#181818;stroke-width:1.0;"/><line style="stroke:#181818;stroke-width:1.0;" x1="1140" x2="1140" y1="1174.2295" y2="1194.2295"/><polygon fill="#181818" points="1136,1184.2295,1140,1194.2295,1144,1184.2295,1140,1188.2295" style="stroke:#181818;stroke-width:1.0;"/><line style="stroke:#181818;stroke-width:1.0;" x1="1279.75" x2="1140" y1="1118.2607" y2="1118.2607"/><line style="stroke:#181818;stroke-width:1.0;" x1="1140" x2="1140" y1="1118.2607" y2="1140.2607"/><polygon fill="#181818" points="1136,1130.2607,1140,1140.2607,1144,1130.2607,1140,1134.2607" style="stroke:#181818;stroke-width:1.0;"/><line style="stroke:#181818;stroke-width:1.0;" x1="1405.75" x2="1545.5" y1="1118.2607" y2="1118.2607"/><line style="stroke:#181818;stroke-width:1.0;" x1="1545.5" x2="1545.5" y1="1118.2607" y2="1140.2607"/><polygon fill="#181818" points="1541.5,1130.2607,1545.5,1140.2607,1549.5,1130.2607,1545.5,1134.2607" style="stroke:#181818;stroke-width:1.0;"/><line style="stroke:#181818;stroke-width:1.0;" x1="1140" x2="1140" y1="1292.1982" y2="1310.1982"/><line style="stroke:#181818;stroke-width:1.0;" x1="1140" x2="1330.75" y1="1310.1982" y2="1310.1982"/><polygon fill="#181818" points="1320.75,1306.1982,1330.75,1310.1982,1320.75,1314.1982,1324.75,1310.1982" style="stroke:#181818;stroke-width:1.0;"/><line style="stroke:#181818;stroke-width:1.0;" x1="1545.5" x2="1545.5" y1="1174.2295" y2="1310.1982"/><line style="stroke:#181818;stroke-width:1.0;" x1="1545.5" x2="1354.75" y1="1310.1982" y2="1310.1982"/><polygon fill="#181818" points="1364.75,1306.1982,1354.75,1310.1982,1364.75,1314.1982,1360.75,1310.1982" style="stroke:#181818;stroke-width:1.0;"/><line style="stroke:#181818;stroke-width:1.0;" x1="1342.75" x2="1342.75" y1="1086.2607" y2="1106.2607"/><polygon fill="#181818" points="1338.75,1096.2607,1342.75,1106.2607,1346.75,1096.2607,1342.75,1100.2607" style="stroke:#181818;stroke-width:1.0;"/><line style="stroke:#181818;stroke-width:1.0;" x1="1342.75" x2="1342.75" y1="1322.1982" y2="1342.1982"/><polygon fill="#181818" points="1338.75,1332.1982,1342.75,1342.1982,1346.75,1332.1982,1342.75,1336.1982" style="stroke:#181818;stroke-width:1.0;"/><text fill="#000000" font-family="sans-serif" font-size="18" lengthAdjust="spacing" textLength="48" x="235" y="29.4531">&#1043;&#1110;&#1089;&#1090;&#1100;</text><text fill="#000000" font-family="sans-serif" font-size="18" lengthAdjust="spacing" textLength="139" x="654.5" y="29.4531">&#1040;&#1076;&#1084;&#1110;&#1085;&#1110;&#1089;&#1090;&#1088;&#1072;&#1090;&#1086;&#1088;</text><text fill="#000000" font-family="sans-serif" font-size="18" lengthAdjust="spacing" textLength="92" x="1252.5" y="29.4531">&#1055;&#1077;&#1088;&#1089;&#1086;&#1085;&#1072;&#1083;</text><!--SRC=[VPHDJkD048NtFaKloHN8Oiuo4a63D88HoJ8BXoWI2qHGa3mx0Yksnec3SVnpXQeRpQlg1dSRQtRjxgfNrT-hzfmUEU45t_3TF9hEVbxFebFQo0QbL5D36HqfnwhcjQ4zDlQKuh3afQ4TDLZcTEJxCTB-8gNb9I-ex8NAwOOAUaEjs52Bl5jUMX4fKb7ECQMzCE_4S6AidCHiTJFd5IUqrr86eIqwbNh5EBeuDoVqzBM3TEcgXUmjLDCV8pFxDRaq9thBSXGPSqfFO12ZUAKNr-ksee-OJEljwT2HUCD6W-Kz3btyM6KschDGBeU0d8EQKIajJdvF9sYoviIMtofhgLC7MTz8JYxFBivXrTMVA9hJ0uugbAoTYx46DXpxRZfEcG64mlLMMLSSIbXvvBK40GyMcS1NmSJp0JAP93r8518IUbTNy5dmoieTvHFUPXt6Tu6CBS6PwRZSEOjaOghUa0LMvODMlQWdZJRkrUWf_TUFmVX1JonEwGK4UQLcU4BVeOO6AM24D9PPPyihuiiE4avjLotKRgIKUhPpDgmzOYwY2GQs6IJrZ28fxK8_mbA2gIyjP0uWKmXcz895QMyWxskWafBkedpAAYbSZ0dvTeGJdV7A_zEqyhwClWMlcSzVLT1IvxObttTn2BJSH9Gmb3Ayz140wHpy1m00]--></g></svg>