<?xml version="1.0" encoding="us-ascii" standalone="no"?><svg xmlns="http://www.w3.org/2000/svg" xmlns:xlink="http://www.w3.org/1999/xlink" contentStyleType="text/css" height="438px" preserveAspectRatio="none" style="width:5440px;height:438px;background:#FFFFFF;" version="1.1" viewBox="0 0 5440 438" width="5440px" zoomAndPan="magnify"><defs/><g><!--entity Enter--><g id="elem_Enter"><rect fill="#F1F1F1" height="36.2969" rx="2.5" ry="2.5" style="stroke:#181818;stroke-width:0.5;" width="226" x="16.5" y="283.38"/><text fill="#000000" font-family="sans-serif" font-size="14" lengthAdjust="spacing" textLength="206" x="26.5" y="306.3751">A0: Guest enters application</text></g><!--entity Check--><g id="elem_Check"><rect fill="#F1F1F1" height="36.2969" rx="2.5" ry="2.5" style="stroke:#181818;stroke-width:0.5;" width="245" x="7" y="170.38"/><text fill="#000000" font-family="sans-serif" font-size="14" lengthAdjust="spacing" textLength="225" x="17" y="193.3751">A1: Check availability and price</text></g><!--entity Booking--><g id="elem_Booking"><rect fill="#F1F1F1" height="36.2969" rx="2.5" ry="2.5" style="stroke:#181818;stroke-width:0.5;" width="232" x="408.5" y="170.38"/><text fill="#000000" font-family="sans-serif" font-size="14" lengthAdjust="spacing" textLength="212" x="418.5" y="193.3751">A2: Reservation and payment</text></g><!--entity Confirmation--><g id="elem_Confirmation"><rect fill="#F1F1F1" height="36.2969" rx="2.5" ry="2.5" style="stroke:#181818;stroke-width:0.5;" width="248" x="400.5" y="57.38"/><text fill="#000000" font-family="sans-serif" font-size="14" lengthAdjust="spacing" textLength="228" x="410.5" y="80.3751">A3: Confirmation of reservation</text></g><!--entity Tracking--><g id="elem_Tracking"><rect fill="#F1F1F1" height="36.2969" rx="2.5" ry="2.5" style="stroke:#181818;stroke-width:0.5;" width="218" x="795.5" y="57.38"/><text fill="#000000" font-family="sans-serif" font-size="14" lengthAdjust="spacing" textLength="198" x="805.5" y="80.3751">A4: Tracking delivery status</text></g><!--entity Arrival--><g id="elem_Arrival"><rect fill="#F1F1F1" height="36.2969" rx="2.5" ry="2.5" style="stroke:#181818;stroke-width:0.5;" width="227" x="1174" y="57.38"/><text fill="#000000" font-family="sans-serif" font-size="14" lengthAdjust="spacing" textLength="207" x="1184" y="80.3751">A5: Arrival of mobile number</text></g><!--entity Usage--><g id="elem_Usage"><rect fill="#F1F1F1" height="36.2969" rx="2.5" ry="2.5" style="stroke:#181818;stroke-width:0.5;" width="154" x="1558.5" y="57.38"/><text fill="#000000" font-family="sans-serif" font-size="14" lengthAdjust="spacing" textLength="134" x="1568.5" y="80.3751">A6: Use of services</text></g><!--entity Feedback--><g id="elem_Feedback"><rect fill="#F1F1F1" height="36.2969" rx="2.5" ry="2.5" style="stroke:#181818;stroke-width:0.5;" width="190" x="1880.5" y="57.38"/><text fill="#000000" font-family="sans-serif" font-size="14" lengthAdjust="spacing" textLength="170" x="1890.5" y="80.3751">A7: Reviews and ratings</text></g><!--entity StaffTasks--><g id="elem_StaffTasks"><rect fill="#F1F1F1" height="36.2969" rx="2.5" ry="2.5" style="stroke:#181818;stroke-width:0.5;" width="189" x="2106" y="57.38"/><text fill="#000000" font-family="sans-serif" font-size="14" lengthAdjust="spacing" textLength="169" x="2116" y="80.3751">A8: Staff receives tasks</text></g><!--entity Preparation--><g id="elem_Preparation"><rect fill="#F1F1F1" height="36.2969" rx="2.5" ry="2.5" style="stroke:#181818;stroke-width:0.5;" width="238" x="2395.5" y="57.38"/><text fill="#000000" font-family="sans-serif" font-size="14" lengthAdjust="spacing" textLength="218" x="2405.5" y="80.3751">A9: Preparation of mobile unit</text></g><!--entity Delivery--><g id="elem_Delivery"><rect fill="#F1F1F1" height="36.2969" rx="2.5" ry="2.5" style="stroke:#181818;stroke-width:0.5;" width="222" x="2766.5" y="57.38"/><text fill="#000000" font-family="sans-serif" font-size="14" lengthAdjust="spacing" textLength="202" x="2776.5" y="80.3751">A10: Delivery to destination</text></g><!--entity Service--><g id="elem_Service"><rect fill="#F1F1F1" height="36.2969" rx="2.5" ry="2.5" style="stroke:#181818;stroke-width:0.5;" width="154" x="3149.5" y="57.38"/><text fill="#000000" font-family="sans-serif" font-size="14" lengthAdjust="spacing" textLength="134" x="3159.5" y="80.3751">A11: Guest service</text></g><!--entity AdminManage--><g id="elem_AdminManage"><rect fill="#F1F1F1" height="36.2969" rx="2.5" ry="2.5" style="stroke:#181818;stroke-width:0.5;" width="280" x="3705.5" y="57.38"/><text fill="#000000" font-family="sans-serif" font-size="14" lengthAdjust="spacing" textLength="260" x="3715.5" y="80.3751">A12: Administrator manages system</text></g><!--entity Allocation--><g id="elem_Allocation"><rect fill="#F1F1F1" height="36.2969" rx="2.5" ry="2.5" style="stroke:#181818;stroke-width:0.5;" width="197" x="4091" y="57.38"/><text fill="#000000" font-family="sans-serif" font-size="14" lengthAdjust="spacing" textLength="177" x="4101" y="80.3751">A13: Resource allocation</text></g><!--entity Analytics--><g id="elem_Analytics"><rect fill="#F1F1F1" height="36.2969" rx="2.5" ry="2.5" style="stroke:#181818;stroke-width:0.5;" width="303" x="4453" y="57.38"/><text fill="#000000" font-family="sans-serif" font-size="14" lengthAdjust="spacing" textLength="283" x="4463" y="80.3751">A14: Collection of analytics and reports</text></g><!--entity Optimization--><g id="elem_Optimization"><rect fill="#F1F1F1" height="36.2969" rx="2.5" ry="2.5" style="stroke:#181818;stroke-width:0.5;" width="207" x="4967" y="57.38"/><text fill="#000000" font-family="sans-serif" font-size="14" lengthAdjust="spacing" textLength="187" x="4977" y="80.3751">A15: Service optimization</text></g><!--entity Notification--><g id="elem_Notification"><rect fill="#F1F1F1" height="36.2969" rx="2.5" ry="2.5" style="stroke:#181818;stroke-width:0.5;" width="198" x="3472.5" y="57.38"/><text fill="#000000" font-family="sans-serif" font-size="14" lengthAdjust="spacing" textLength="178" x="3482.5" y="80.3751">A16: Notification system</text></g><!--entity Reporting--><g id="elem_Reporting"><rect fill="#F1F1F1" height="36.2969" rx="2.5" ry="2.5" style="stroke:#181818;stroke-width:0.5;" width="225" x="5209" y="57.38"/><text fill="#000000" font-family="sans-serif" font-size="14" lengthAdjust="spacing" textLength="205" x="5219" y="80.3751">A17: Analytics and reporting</text></g><!--entity SocialMedia--><g id="elem_SocialMedia"><rect fill="#F1F1F1" height="36.2969" rx="2.5" ry="2.5" style="stroke:#181818;stroke-width:0.5;" width="229" x="15" y="396.38"/><text fill="#000000" font-family="sans-serif" font-size="14" lengthAdjust="spacing" textLength="209" x="25" y="419.3751">A18: Social Media Integration</text></g><!--entity Inventory--><g id="elem_Inventory"><rect fill="#F1F1F1" height="36.2969" rx="2.5" ry="2.5" style="stroke:#181818;stroke-width:0.5;" width="307" x="3692" y="170.38"/><text fill="#000000" font-family="sans-serif" font-size="14" lengthAdjust="spacing" textLength="287" x="3702" y="193.3751">A19: Inventory and supply management</text></g><!--link Enter to Check--><g id="link_Enter_Check"><path d="M149.552,283.372 C161.602,270.977 173.532,253.436 167.5,236.38 C163.581,225.3 159.873,219.3414 152.379,211.1684 " fill="none" id="Enter-to-Check" style="stroke:#181818;stroke-width:1.0;"/><polygon fill="#181818" points="148.324,206.746,151.4582,216.0829,151.7031,210.4313,157.3547,210.6762,148.324,206.746" style="stroke:#181818;stroke-width:1.0;"/><text fill="#000000" font-family="sans-serif" font-size="13" lengthAdjust="spacing" textLength="130" x="170.5" y="249.4469">O1: Available rooms</text></g><!--reverse link Check to Enter--><g id="link_Check_Enter"><path d="M74.681,209.4035 C61.4865,216.5015 54.0891,223.361 46.5,236.38 C34.8162,256.423 55.3588,272.377 78.9254,283.343 " fill="none" id="Check-backto-Enter" style="stroke:#181818;stroke-width:1.0;stroke-dasharray:7.0,7.0;"/><polygon fill="#181818" points="79.965,206.561,70.1441,207.3021,75.5617,208.9298,73.9341,214.3474,79.965,206.561" style="stroke:#181818;stroke-width:1.0;"/><text fill="#000000" font-family="sans-serif" font-size="13" lengthAdjust="spacing" textLength="111" x="47.5" y="249.4469">C1: Booking rules</text></g><!--link Check to Booking--><g id="link_Check_Booking"><path d="M252.045,188.38 C301.881,188.38 353.192,188.38 402.354,188.38 " fill="none" id="Check-to-Booking" style="stroke:#181818;stroke-width:1.0;"/><polygon fill="#181818" points="408.354,188.38,399.354,184.38,403.354,188.38,399.354,192.38,408.354,188.38" style="stroke:#181818;stroke-width:1.0;"/><text fill="#000000" font-family="sans-serif" font-size="13" lengthAdjust="spacing" textLength="120" x="270.25" y="166.4469">I2: Selected rooms</text><text fill="#000000" font-family="sans-serif" font-size="13" lengthAdjust="spacing" textLength="66" x="297.25" y="181.5797">and prices</text></g><!--link Booking to Confirmation--><g id="link_Booking_Confirmation"><path d="M557.518,170.32 C575.465,158.551 592.357,141.759 583.5,123.38 C577.587,111.111 571.6434,104.5122 560.8484,96.8952 " fill="none" id="Booking-to-Confirmation" style="stroke:#181818;stroke-width:1.0;"/><polygon fill="#181818" points="555.946,93.436,560.9935,101.8931,560.0314,96.3187,565.6058,95.3565,555.946,93.436" style="stroke:#181818;stroke-width:1.0;"/><text fill="#000000" font-family="sans-serif" font-size="13" lengthAdjust="spacing" textLength="122" x="587.5" y="136.4469">C3: Booking details</text></g><!--reverse link Confirmation to Booking--><g id="link_Confirmation_Booking"><path d="M448.9908,95.5568 C421.7908,105.8568 405.685,119.06 419.5,140.38 C428.189,153.789 441.701,163.407 456.173,170.294 " fill="none" id="Confirmation-backto-Booking" style="stroke:#181818;stroke-width:1.0;stroke-dasharray:7.0,7.0;"/><polygon fill="#181818" points="454.602,93.432,444.7687,92.8784,449.926,95.2027,447.6018,100.36,454.602,93.432" style="stroke:#181818;stroke-width:1.0;"/><text fill="#000000" font-family="sans-serif" font-size="13" lengthAdjust="spacing" textLength="154" x="420.5" y="136.4469">M2: Payment conditions</text></g><!--link Confirmation to Tracking--><g id="link_Confirmation_Tracking"><path d="M648.663,75.38 C695.973,75.38 743.496,75.38 789.314,75.38 " fill="none" id="Confirmation-to-Tracking" style="stroke:#181818;stroke-width:1.0;"/><polygon fill="#181818" points="795.314,75.38,786.314,71.38,790.314,75.38,786.314,79.38,795.314,75.38" style="stroke:#181818;stroke-width:1.0;"/><text fill="#000000" font-family="sans-serif" font-size="13" lengthAdjust="spacing" textLength="110" x="667" y="68.4469">O4: Confirmation</text></g><!--link Tracking to Arrival--><g id="link_Tracking_Arrival"><path d="M1013.74,75.38 C1063.82,75.38 1117.17,75.38 1167.78,75.38 " fill="none" id="Tracking-to-Arrival" style="stroke:#181818;stroke-width:1.0;"/><polygon fill="#181818" points="1173.78,75.38,1164.78,71.38,1168.78,75.38,1164.78,79.38,1173.78,75.38" style="stroke:#181818;stroke-width:1.0;"/><text fill="#000000" font-family="sans-serif" font-size="13" lengthAdjust="spacing" textLength="124" x="1031.75" y="68.4469">O5: Delivery status</text></g><!--link Arrival to Usage--><g id="link_Arrival_Usage"><path d="M1401.45,75.38 C1452.89,75.38 1506.31,75.38 1552.41,75.38 " fill="none" id="Arrival-to-Usage" style="stroke:#181818;stroke-width:1.0;"/><polygon fill="#181818" points="1558.41,75.38,1549.41,71.38,1553.41,75.38,1549.41,79.38,1558.41,75.38" style="stroke:#181818;stroke-width:1.0;"/><text fill="#000000" font-family="sans-serif" font-size="13" lengthAdjust="spacing" textLength="121" x="1419.25" y="68.4469">O6: Mobile number</text></g><!--link Usage to Feedback--><g id="link_Usage_Feedback"><path d="M1712.65,75.38 C1762.42,75.38 1821.49,75.38 1874.44,75.38 " fill="none" id="Usage-to-Feedback" style="stroke:#181818;stroke-width:1.0;"/><polygon fill="#181818" points="1880.44,75.38,1871.44,71.38,1875.44,75.38,1871.44,79.38,1880.44,75.38" style="stroke:#181818;stroke-width:1.0;"/><text fill="#000000" font-family="sans-serif" font-size="13" lengthAdjust="spacing" textLength="131" x="1731" y="68.4469">O7: User experience</text></g><!--link StaffTasks to Preparation--><g id="link_StaffTasks_Preparation"><path d="M2295.14,75.38 C2326.65,75.38 2356.16,75.38 2389.29,75.38 " fill="none" id="StaffTasks-to-Preparation" style="stroke:#181818;stroke-width:1.0;"/><polygon fill="#181818" points="2395.29,75.38,2386.29,71.38,2390.29,75.38,2386.29,79.38,2395.29,75.38" style="stroke:#181818;stroke-width:1.0;"/><text fill="#000000" font-family="sans-serif" font-size="13" lengthAdjust="spacing" textLength="64" x="2313.25" y="68.4469">O8: Tasks</text></g><!--link Preparation to Delivery--><g id="link_Preparation_Delivery"><path d="M2633.61,75.38 C2676.3,75.38 2718.22,75.38 2760.22,75.38 " fill="none" id="Preparation-to-Delivery" style="stroke:#181818;stroke-width:1.0;"/><polygon fill="#181818" points="2766.22,75.38,2757.22,71.38,2761.22,75.38,2757.22,79.38,2766.22,75.38" style="stroke:#181818;stroke-width:1.0;"/><text fill="#000000" font-family="sans-serif" font-size="13" lengthAdjust="spacing" textLength="96" x="2652" y="68.4469">O9: Ready unit</text></g><!--link Delivery to Service--><g id="link_Delivery_Service"><path d="M2988.89,75.38 C3041.15,75.38 3096.15,75.38 3143.25,75.38 " fill="none" id="Delivery-to-Service" style="stroke:#181818;stroke-width:1.0;"/><polygon fill="#181818" points="3149.25,75.38,3140.25,71.38,3144.25,75.38,3140.25,79.38,3149.25,75.38" style="stroke:#181818;stroke-width:1.0;"/><text fill="#000000" font-family="sans-serif" font-size="13" lengthAdjust="spacing" textLength="124" x="3007" y="68.4469">O10: Delivered unit</text></g><!--link Service to Notification--><g id="link_Service_Notification"><path d="M3303.92,75.38 C3353.69,75.38 3412.81,75.38 3466.35,75.38 " fill="none" id="Service-to-Notification" style="stroke:#181818;stroke-width:1.0;"/><polygon fill="#181818" points="3472.35,75.38,3463.35,71.38,3467.35,75.38,3463.35,79.38,3472.35,75.38" style="stroke:#181818;stroke-width:1.0;"/><text fill="#000000" font-family="sans-serif" font-size="13" lengthAdjust="spacing" textLength="132" x="3322" y="53.4469">C14: Guest requests</text><text fill="#000000" font-family="sans-serif" font-size="13" lengthAdjust="spacing" textLength="128" x="3324" y="68.5797">and staff responses</text></g><!--link Analytics to Reporting--><g id="link_Analytics_Reporting"><path d="M4671.69,57.318 C4758.14,36.278 4913.01,6 5046,19.38 C5117.14,26.537 5191.2506,42.4212 5246.6206,55.9162 " fill="none" id="Analytics-to-Reporting" style="stroke:#181818;stroke-width:1.0;"/><polygon fill="#181818" points="5252.45,57.337,5244.6531,51.3196,5247.5922,56.153,5242.7588,59.0921,5252.45,57.337" style="stroke:#181818;stroke-width:1.0;"/><text fill="#000000" font-family="sans-serif" font-size="13" lengthAdjust="spacing" textLength="125" x="4920" y="23.4469">C15: Analytics data</text></g><!--link Enter to SocialMedia--><g id="link_Enter_SocialMedia"><path d="M129.5,319.724 C129.5,340.5769 129.5,369.3593 129.5,390.158 " fill="none" id="Enter-to-SocialMedia" style="stroke:#181818;stroke-width:1.0;"/><polygon fill="#181818" points="129.5,396.158,133.5,387.158,129.5,391.158,125.5,387.158,129.5,396.158" style="stroke:#181818;stroke-width:1.0;"/><text fill="#000000" font-family="sans-serif" font-size="13" lengthAdjust="spacing" textLength="148" x="130.5" y="362.4469">C16: Social media data</text></g><!--link AdminManage to Inventory--><g id="link_AdminManage_Inventory"><path d="M3845.5,93.724 C3845.5,114.577 3845.5,143.359 3845.5,164.158 " fill="none" id="AdminManage-to-Inventory" style="stroke:#181818;stroke-width:1.0;"/><polygon fill="#181818" points="3845.5,170.158,3849.5,161.158,3845.5,165.158,3841.5,161.158,3845.5,170.158" style="stroke:#181818;stroke-width:1.0;"/><text fill="#000000" font-family="sans-serif" font-size="13" lengthAdjust="spacing" textLength="185" x="3846.5" y="136.4469">C17: Inventory requirements</text></g><!--link AdminManage to Allocation--><g id="link_AdminManage_Allocation"><path d="M3985.91,75.38 C4021.12,75.38 4052.15,75.38 4084.84,75.38 " fill="none" id="AdminManage-to-Allocation" style="stroke:#181818;stroke-width:1.0;"/><polygon fill="#181818" points="4090.84,75.38,4081.84,71.38,4085.84,75.38,4081.84,79.38,4090.84,75.38" style="stroke:#181818;stroke-width:1.0;"/><text fill="#000000" font-family="sans-serif" font-size="13" lengthAdjust="spacing" textLength="69" x="4003.75" y="68.4469">O11: Plans</text></g><!--link Allocation to Analytics--><g id="link_Allocation_Analytics"><path d="M4288.11,75.38 C4337.25,75.38 4391.77,75.38 4446.66,75.38 " fill="none" id="Allocation-to-Analytics" style="stroke:#181818;stroke-width:1.0;"/><polygon fill="#181818" points="4452.66,75.38,4443.66,71.38,4447.66,75.38,4443.66,79.38,4452.66,75.38" style="stroke:#181818;stroke-width:1.0;"/><text fill="#000000" font-family="sans-serif" font-size="13" lengthAdjust="spacing" textLength="128" x="4306.5" y="68.4469">O12: Resource data</text></g><!--link Analytics to Optimization--><g id="link_Analytics_Optimization"><path d="M4756.12,75.38 C4825.06,75.38 4898.88,75.38 4960.84,75.38 " fill="none" id="Analytics-to-Optimization" style="stroke:#181818;stroke-width:1.0;"/><polygon fill="#181818" points="4966.84,75.38,4957.84,71.38,4961.84,75.38,4957.84,79.38,4966.84,75.38" style="stroke:#181818;stroke-width:1.0;"/><text fill="#000000" font-family="sans-serif" font-size="13" lengthAdjust="spacing" textLength="174" x="4774.5" y="68.4469">O13: Reports and analytics</text></g><!--SRC=[RLPDRziu4BthLmnwQGkqHjCcpTQ70jvqT-63DqMJtlR2Y2ERC4Mg9ENKM-n_t-5GeiWWEJWMvmtduxqPsH-L6OGJFKZinAZ3FVuC6wtsfaSJeAKFT8tFA8Tj46Ql4NurG7ztmTaZtbXj7JneqHxJwK58-wZC7ZgXFJR_DSrB-8ATCWZTQDgWh26uROyU7bKum6ZKZn51IOgdEeNEDqka5vjtQ_XhH1-0q_4WXa6hLiHhNe3my0TdMNfShE7cWEqHn4aeBHwKLk4CmaWOd6gHlHXGURrVmpVqw4vyTOABS-m4E_nkBJLYNxbye43MTChroSTsrADyHOfJs2lVopNSE-fPR9H4hKxepk232ADdnzbOELsjOUESEWaTO_MMIaCmO_-0ZfqcO-NpSGtVFKPyp8pgJ_T_zsAF5V0wDk2ayD5pyOvoDli4_XDHFaI25oh30K4uPnyd5gdFg3rqf8Mj6SRWuTNszHku7KDwkAK7QWP9Xb2lRkWf1jbXUn16-PxETgyRvXBUEhK_XBUV9nRNS4kCRXANbAcpjlTDicNeH0-1jqJa7Meg36N2_cCozxwPWKkGaa4Yb4YTCH831QLO9IGxPleemSjQ2KssPVJC6u69nIyruyripN2c9uA9lbt9SvCi6JXJ4x7NJBK3_3cWKsXQZ8Hjf0GXfOg9KOYfA6Og4_A42zM1GUgM5-uyaR8QXzN2oCt5qYKtwgAl4wvkweuu-Pg62LfhKYwUSbkjLXpRMo1WJCcIi5m4BOdrER5OpZRcXXBbcxYseXIBufuk61OoQix37zIGogQcTntG5o5xPS3JfXDEMRx-ZctpKJKWlwqdAnqYqUSX27zC4yA6-_XOkNoYkXt6zJalY6beQUcblLAOwoNshb19i5IhftbS5ijigvqkvcKvpNhABNrlcYN9HJzbUYGXgZ5LKPvdS4w8a9_YkX3opAKqsPAnKrGUtwKMcad6ioxBvjTra5xOh7oW78YfNXYIlGT_zW7xjEmYOCVdjVC7tkHsT1HTQ1B2qhLDVgnTU7vrN1eJJNIjFWVLpX8Qh0k9wSrigM-uMkUAxH1Kh_vTejuM1xKNJVVVDhxrKb9bUULvCr-TkrjvnNcyd9bt-2F-dxQUdmJh1ne06jCwF2sCpJE5qXnp2j_cfsP1vGooaSDVbJT94SIJI75sRAjeH7SebQ1tHC2zMrgKZ6oRtmBqAy947IqMZlGntzJpsJF1I9fRSw9bOrrwx_kHVZIS9n7bLth6D8MKSjpbXXZrkhmojbWvleWwMZddTP-5nWD0S_bL2rfvnVc2pOsBqFU5UhcsPtfV2egTMFAiKQutg_T_]--></g></svg>