<?xml version="1.0" encoding="us-ascii" standalone="no"?><svg xmlns="http://www.w3.org/2000/svg" xmlns:xlink="http://www.w3.org/1999/xlink" contentStyleType="text/css" height="661px" preserveAspectRatio="none" style="width:967px;height:661px;background:#FFFFFF;" version="1.1" viewBox="0 0 967 661" width="967px" zoomAndPan="magnify"><defs/><g><rect fill="#FFFFFF" height="29.1328" style="stroke:#181818;stroke-width:1.0;" width="10" x="94" y="344.3594"/><rect fill="#FFFFFF" height="29.1328" style="stroke:#181818;stroke-width:1.0;" width="10" x="94" y="504.0234"/><rect fill="#FFFFFF" height="29.1328" style="stroke:#181818;stroke-width:1.0;" width="10" x="201.5" y="184.6953"/><rect fill="#FFFFFF" height="87.3984" style="stroke:#181818;stroke-width:1.0;" width="10" x="498.5" y="155.5625"/><rect fill="#FFFFFF" height="87.3984" style="stroke:#181818;stroke-width:1.0;" width="10" x="696.5" y="315.2266"/><rect fill="#FFFFFF" height="87.3984" style="stroke:#181818;stroke-width:1.0;" width="10" x="880.5" y="474.8906"/><line style="stroke:#181818;stroke-width:0.5;stroke-dasharray:5.0,5.0;" x1="27" x2="27" y1="81.2969" y2="580.2891"/><line style="stroke:#181818;stroke-width:0.5;stroke-dasharray:5.0,5.0;" x1="99" x2="99" y1="81.2969" y2="580.2891"/><line style="stroke:#181818;stroke-width:0.5;stroke-dasharray:5.0,5.0;" x1="206" x2="206" y1="81.2969" y2="580.2891"/><line style="stroke:#181818;stroke-width:0.5;stroke-dasharray:5.0,5.0;" x1="503.5" x2="503.5" y1="81.2969" y2="580.2891"/><line style="stroke:#181818;stroke-width:0.5;stroke-dasharray:5.0,5.0;" x1="701.5" x2="701.5" y1="81.2969" y2="580.2891"/><line style="stroke:#181818;stroke-width:0.5;stroke-dasharray:5.0,5.0;" x1="885.5" x2="885.5" y1="81.2969" y2="580.2891"/><text fill="#000000" font-family="sans-serif" font-size="14" lengthAdjust="spacing" textLength="39" x="5" y="77.9951">&#1043;&#1110;&#1089;&#1090;&#1100;</text><ellipse cx="27.5" cy="13.5" fill="#E2E2F0" rx="8" ry="8" style="stroke:#181818;stroke-width:0.5;"/><path d="M27.5,21.5 L27.5,48.5 M14.5,29.5 L40.5,29.5 M27.5,48.5 L14.5,63.5 M27.5,48.5 L40.5,63.5 " fill="none" style="stroke:#181818;stroke-width:0.5;"/><text fill="#000000" font-family="sans-serif" font-size="14" lengthAdjust="spacing" textLength="39" x="5" y="592.2842">&#1043;&#1110;&#1089;&#1090;&#1100;</text><ellipse cx="27.5" cy="604.0859" fill="#E2E2F0" rx="8" ry="8" style="stroke:#181818;stroke-width:0.5;"/><path d="M27.5,612.0859 L27.5,639.0859 M14.5,620.0859 L40.5,620.0859 M27.5,639.0859 L14.5,654.0859 M27.5,639.0859 L40.5,654.0859 " fill="none" style="stroke:#181818;stroke-width:0.5;"/><text fill="#000000" font-family="sans-serif" font-size="14" lengthAdjust="spacing" textLength="72" x="60" y="77.9951">&#1055;&#1077;&#1088;&#1089;&#1086;&#1085;&#1072;&#1083;</text><ellipse cx="99" cy="13.5" fill="#E2E2F0" rx="8" ry="8" style="stroke:#181818;stroke-width:0.5;"/><path d="M99,21.5 L99,48.5 M86,29.5 L112,29.5 M99,48.5 L86,63.5 M99,48.5 L112,63.5 " fill="none" style="stroke:#181818;stroke-width:0.5;"/><text fill="#000000" font-family="sans-serif" font-size="14" lengthAdjust="spacing" textLength="72" x="60" y="592.2842">&#1055;&#1077;&#1088;&#1089;&#1086;&#1085;&#1072;&#1083;</text><ellipse cx="99" cy="604.0859" fill="#E2E2F0" rx="8" ry="8" style="stroke:#181818;stroke-width:0.5;"/><path d="M99,612.0859 L99,639.0859 M86,620.0859 L112,620.0859 M99,639.0859 L86,654.0859 M99,639.0859 L112,654.0859 " fill="none" style="stroke:#181818;stroke-width:0.5;"/><text fill="#000000" font-family="sans-serif" font-size="14" lengthAdjust="spacing" textLength="111" x="148" y="77.9951">&#1040;&#1076;&#1084;&#1110;&#1085;&#1110;&#1089;&#1090;&#1088;&#1072;&#1090;&#1086;&#1088;</text><ellipse cx="206.5" cy="13.5" fill="#E2E2F0" rx="8" ry="8" style="stroke:#181818;stroke-width:0.5;"/><path d="M206.5,21.5 L206.5,48.5 M193.5,29.5 L219.5,29.5 M206.5,48.5 L193.5,63.5 M206.5,48.5 L219.5,63.5 " fill="none" style="stroke:#181818;stroke-width:0.5;"/><text fill="#000000" font-family="sans-serif" font-size="14" lengthAdjust="spacing" textLength="111" x="148" y="592.2842">&#1040;&#1076;&#1084;&#1110;&#1085;&#1110;&#1089;&#1090;&#1088;&#1072;&#1090;&#1086;&#1088;</text><ellipse cx="206.5" cy="604.0859" fill="#E2E2F0" rx="8" ry="8" style="stroke:#181818;stroke-width:0.5;"/><path d="M206.5,612.0859 L206.5,639.0859 M193.5,620.0859 L219.5,620.0859 M206.5,639.0859 L193.5,654.0859 M206.5,639.0859 L219.5,654.0859 " fill="none" style="stroke:#181818;stroke-width:0.5;"/><text fill="#000000" font-family="sans-serif" font-size="14" lengthAdjust="spacing" textLength="162" x="419.5" y="77.9951">&#1057;&#1080;&#1089;&#1090;&#1077;&#1084;&#1072; &#1041;&#1088;&#1086;&#1085;&#1102;&#1074;&#1072;&#1085;&#1085;&#1103;</text><ellipse cx="503.5" cy="49" fill="#E2E2F0" rx="12" ry="12" style="stroke:#181818;stroke-width:0.5;"/><line style="stroke:#181818;stroke-width:0.5;" x1="491.5" x2="515.5" y1="63" y2="63"/><text fill="#000000" font-family="sans-serif" font-size="14" lengthAdjust="spacing" textLength="162" x="419.5" y="592.2842">&#1057;&#1080;&#1089;&#1090;&#1077;&#1084;&#1072; &#1041;&#1088;&#1086;&#1085;&#1102;&#1074;&#1072;&#1085;&#1085;&#1103;</text><ellipse cx="503.5" cy="611.5859" fill="#E2E2F0" rx="12" ry="12" style="stroke:#181818;stroke-width:0.5;"/><line style="stroke:#181818;stroke-width:0.5;" x1="491.5" x2="515.5" y1="625.5859" y2="625.5859"/><text fill="#000000" font-family="sans-serif" font-size="14" lengthAdjust="spacing" textLength="202" x="597.5" y="77.9951">&#1057;&#1080;&#1089;&#1090;&#1077;&#1084;&#1072; &#1042;&#1110;&#1076;&#1089;&#1083;&#1110;&#1076;&#1082;&#1086;&#1074;&#1091;&#1074;&#1072;&#1085;&#1085;&#1103;</text><ellipse cx="701.5" cy="49" fill="#E2E2F0" rx="12" ry="12" style="stroke:#181818;stroke-width:0.5;"/><line style="stroke:#181818;stroke-width:0.5;" x1="689.5" x2="713.5" y1="63" y2="63"/><text fill="#000000" font-family="sans-serif" font-size="14" lengthAdjust="spacing" textLength="202" x="597.5" y="592.2842">&#1057;&#1080;&#1089;&#1090;&#1077;&#1084;&#1072; &#1042;&#1110;&#1076;&#1089;&#1083;&#1110;&#1076;&#1082;&#1086;&#1074;&#1091;&#1074;&#1072;&#1085;&#1085;&#1103;</text><ellipse cx="701.5" cy="611.5859" fill="#E2E2F0" rx="12" ry="12" style="stroke:#181818;stroke-width:0.5;"/><line style="stroke:#181818;stroke-width:0.5;" x1="689.5" x2="713.5" y1="625.5859" y2="625.5859"/><text fill="#000000" font-family="sans-serif" font-size="14" lengthAdjust="spacing" textLength="134" x="815.5" y="77.9951">&#1057;&#1077;&#1088;&#1074;&#1110;&#1089; &#1055;&#1077;&#1088;&#1089;&#1086;&#1085;&#1072;&#1083;&#1091;</text><ellipse cx="885.5" cy="49" fill="#E2E2F0" rx="12" ry="12" style="stroke:#181818;stroke-width:0.5;"/><line style="stroke:#181818;stroke-width:0.5;" x1="873.5" x2="897.5" y1="63" y2="63"/><text fill="#000000" font-family="sans-serif" font-size="14" lengthAdjust="spacing" textLength="134" x="815.5" y="592.2842">&#1057;&#1077;&#1088;&#1074;&#1110;&#1089; &#1055;&#1077;&#1088;&#1089;&#1086;&#1085;&#1072;&#1083;&#1091;</text><ellipse cx="885.5" cy="611.5859" fill="#E2E2F0" rx="12" ry="12" style="stroke:#181818;stroke-width:0.5;"/><line style="stroke:#181818;stroke-width:0.5;" x1="873.5" x2="897.5" y1="625.5859" y2="625.5859"/><rect fill="#FFFFFF" height="29.1328" style="stroke:#181818;stroke-width:1.0;" width="10" x="94" y="344.3594"/><rect fill="#FFFFFF" height="29.1328" style="stroke:#181818;stroke-width:1.0;" width="10" x="94" y="504.0234"/><rect fill="#FFFFFF" height="29.1328" style="stroke:#181818;stroke-width:1.0;" width="10" x="201.5" y="184.6953"/><rect fill="#FFFFFF" height="87.3984" style="stroke:#181818;stroke-width:1.0;" width="10" x="498.5" y="155.5625"/><rect fill="#FFFFFF" height="87.3984" style="stroke:#181818;stroke-width:1.0;" width="10" x="696.5" y="315.2266"/><rect fill="#FFFFFF" height="87.3984" style="stroke:#181818;stroke-width:1.0;" width="10" x="880.5" y="474.8906"/><rect fill="#EEEEEE" height="3" style="stroke:#EEEEEE;stroke-width:1.0;" width="960.5" x="0" y="111.8633"/><line style="stroke:#000000;stroke-width:1.0;" x1="0" x2="960.5" y1="111.8633" y2="111.8633"/><line style="stroke:#000000;stroke-width:1.0;" x1="0" x2="960.5" y1="114.8633" y2="114.8633"/><rect fill="#EEEEEE" height="23.1328" style="stroke:#000000;stroke-width:2.0;" width="173" x="393.75" y="101.2969"/><text fill="#000000" font-family="sans-serif" font-size="13" font-weight="bold" lengthAdjust="spacing" textLength="154" x="399.75" y="117.3638">&#1041;&#1088;&#1086;&#1085;&#1102;&#1074;&#1072;&#1085;&#1085;&#1103; &#1085;&#1086;&#1084;&#1077;&#1088;&#1091;</text><polygon fill="#181818" points="486.5,151.5625,496.5,155.5625,486.5,159.5625,490.5,155.5625" style="stroke:#181818;stroke-width:1.0;"/><line style="stroke:#181818;stroke-width:1.0;" x1="27.5" x2="492.5" y1="155.5625" y2="155.5625"/><text fill="#000000" font-family="sans-serif" font-size="13" lengthAdjust="spacing" textLength="248" x="34.5" y="150.4966">[&#1043;&#1110;&#1089;&#1090;&#1100;] &#1042;&#1074;&#1086;&#1076;&#1080;&#1090;&#1100; &#1076;&#1072;&#1085;&#1110; &#1076;&#1083;&#1103; &#1073;&#1088;&#1086;&#1085;&#1102;&#1074;&#1072;&#1085;&#1085;&#1103;</text><polygon fill="#181818" points="222.5,180.6953,212.5,184.6953,222.5,188.6953,218.5,184.6953" style="stroke:#181818;stroke-width:1.0;"/><line style="stroke:#181818;stroke-width:1.0;" x1="216.5" x2="497.5" y1="184.6953" y2="184.6953"/><text fill="#000000" font-family="sans-serif" font-size="13" lengthAdjust="spacing" textLength="256" x="228.5" y="179.6294">[&#1057;&#1080;&#1089;&#1090;&#1077;&#1084;&#1072;] &#1055;&#1077;&#1088;&#1077;&#1074;&#1110;&#1088;&#1103;&#1108; &#1085;&#1072;&#1103;&#1074;&#1085;&#1110;&#1089;&#1090;&#1100; &#1085;&#1086;&#1084;&#1077;&#1088;&#1110;&#1074;</text><polygon fill="#181818" points="486.5,209.8281,496.5,213.8281,486.5,217.8281,490.5,213.8281" style="stroke:#181818;stroke-width:1.0;"/><line style="stroke:#181818;stroke-width:1.0;" x1="206.5" x2="492.5" y1="213.8281" y2="213.8281"/><text fill="#000000" font-family="sans-serif" font-size="13" lengthAdjust="spacing" textLength="263" x="213.5" y="208.7622">[&#1040;&#1076;&#1084;&#1110;&#1085;&#1110;&#1089;&#1090;&#1088;&#1072;&#1090;&#1086;&#1088;] &#1055;&#1110;&#1076;&#1090;&#1074;&#1077;&#1088;&#1076;&#1078;&#1091;&#1108; &#1085;&#1072;&#1103;&#1074;&#1085;&#1110;&#1089;&#1090;&#1100;</text><polygon fill="#181818" points="38.5,238.9609,28.5,242.9609,38.5,246.9609,34.5,242.9609" style="stroke:#181818;stroke-width:1.0;"/><line style="stroke:#181818;stroke-width:1.0;" x1="32.5" x2="502.5" y1="242.9609" y2="242.9609"/><text fill="#000000" font-family="sans-serif" font-size="13" lengthAdjust="spacing" textLength="243" x="44.5" y="237.895">[&#1057;&#1080;&#1089;&#1090;&#1077;&#1084;&#1072;] &#1053;&#1072;&#1076;&#1089;&#1080;&#1083;&#1072;&#1108; &#1087;&#1110;&#1076;&#1090;&#1074;&#1077;&#1088;&#1076;&#1078;&#1077;&#1085;&#1085;&#1103;</text><rect fill="#EEEEEE" height="3" style="stroke:#EEEEEE;stroke-width:1.0;" width="960.5" x="0" y="271.5273"/><line style="stroke:#000000;stroke-width:1.0;" x1="0" x2="960.5" y1="271.5273" y2="271.5273"/><line style="stroke:#000000;stroke-width:1.0;" x1="0" x2="960.5" y1="274.5273" y2="274.5273"/><rect fill="#EEEEEE" height="23.1328" style="stroke:#000000;stroke-width:2.0;" width="292" x="334.25" y="260.9609"/><text fill="#000000" font-family="sans-serif" font-size="13" font-weight="bold" lengthAdjust="spacing" textLength="273" x="340.25" y="277.0278">&#1042;&#1110;&#1076;&#1089;&#1083;&#1110;&#1076;&#1082;&#1086;&#1074;&#1091;&#1074;&#1072;&#1085;&#1085;&#1103; &#1076;&#1086;&#1089;&#1090;&#1072;&#1074;&#1082;&#1080; &#1085;&#1086;&#1084;&#1077;&#1088;&#1091;</text><polygon fill="#181818" points="684.5,311.2266,694.5,315.2266,684.5,319.2266,688.5,315.2266" style="stroke:#181818;stroke-width:1.0;"/><line style="stroke:#181818;stroke-width:1.0;" x1="27.5" x2="690.5" y1="315.2266" y2="315.2266"/><text fill="#000000" font-family="sans-serif" font-size="13" lengthAdjust="spacing" textLength="219" x="34.5" y="310.1606">[&#1043;&#1110;&#1089;&#1090;&#1100;] &#1047;&#1072;&#1087;&#1080;&#1090; &#1085;&#1072; &#1089;&#1090;&#1072;&#1090;&#1091;&#1089; &#1076;&#1086;&#1089;&#1090;&#1072;&#1074;&#1082;&#1080;</text><polygon fill="#181818" points="115,340.3594,105,344.3594,115,348.3594,111,344.3594" style="stroke:#181818;stroke-width:1.0;"/><line style="stroke:#181818;stroke-width:1.0;" x1="109" x2="695.5" y1="344.3594" y2="344.3594"/><text fill="#000000" font-family="sans-serif" font-size="13" lengthAdjust="spacing" textLength="260" x="121" y="339.2935">[&#1057;&#1080;&#1089;&#1090;&#1077;&#1084;&#1072;] &#1047;&#1072;&#1087;&#1080;&#1090; &#1085;&#1072; &#1086;&#1085;&#1086;&#1074;&#1083;&#1077;&#1085;&#1085;&#1103; &#1089;&#1090;&#1072;&#1090;&#1091;&#1089;&#1091;</text><polygon fill="#181818" points="684.5,369.4922,694.5,373.4922,684.5,377.4922,688.5,373.4922" style="stroke:#181818;stroke-width:1.0;"/><line style="stroke:#181818;stroke-width:1.0;" x1="99" x2="690.5" y1="373.4922" y2="373.4922"/><text fill="#000000" font-family="sans-serif" font-size="13" lengthAdjust="spacing" textLength="187" x="106" y="368.4263">[&#1055;&#1077;&#1088;&#1089;&#1086;&#1085;&#1072;&#1083;] &#1054;&#1085;&#1086;&#1074;&#1083;&#1102;&#1108; &#1089;&#1090;&#1072;&#1090;&#1091;&#1089;</text><polygon fill="#181818" points="38.5,398.625,28.5,402.625,38.5,406.625,34.5,402.625" style="stroke:#181818;stroke-width:1.0;"/><line style="stroke:#181818;stroke-width:1.0;" x1="32.5" x2="700.5" y1="402.625" y2="402.625"/><text fill="#000000" font-family="sans-serif" font-size="13" lengthAdjust="spacing" textLength="267" x="44.5" y="397.5591">[&#1057;&#1080;&#1089;&#1090;&#1077;&#1084;&#1072;] &#1053;&#1072;&#1076;&#1089;&#1080;&#1083;&#1072;&#1108; &#1086;&#1085;&#1086;&#1074;&#1083;&#1077;&#1085;&#1085;&#1103; &#1089;&#1090;&#1072;&#1090;&#1091;&#1089;&#1091;</text><rect fill="#EEEEEE" height="3" style="stroke:#EEEEEE;stroke-width:1.0;" width="960.5" x="0" y="431.1914"/><line style="stroke:#000000;stroke-width:1.0;" x1="0" x2="960.5" y1="431.1914" y2="431.1914"/><line style="stroke:#000000;stroke-width:1.0;" x1="0" x2="960.5" y1="434.1914" y2="434.1914"/><rect fill="#EEEEEE" height="23.1328" style="stroke:#000000;stroke-width:2.0;" width="264" x="348.25" y="420.625"/><text fill="#000000" font-family="sans-serif" font-size="13" font-weight="bold" lengthAdjust="spacing" textLength="245" x="354.25" y="436.6919">&#1047;&#1072;&#1084;&#1086;&#1074;&#1083;&#1077;&#1085;&#1085;&#1103; &#1076;&#1086;&#1076;&#1072;&#1090;&#1082;&#1086;&#1074;&#1080;&#1093; &#1087;&#1086;&#1089;&#1083;&#1091;&#1075;</text><polygon fill="#181818" points="868.5,470.8906,878.5,474.8906,868.5,478.8906,872.5,474.8906" style="stroke:#181818;stroke-width:1.0;"/><line style="stroke:#181818;stroke-width:1.0;" x1="27.5" x2="874.5" y1="474.8906" y2="474.8906"/><text fill="#000000" font-family="sans-serif" font-size="13" lengthAdjust="spacing" textLength="236" x="34.5" y="469.8247">[&#1043;&#1110;&#1089;&#1090;&#1100;] &#1047;&#1072;&#1087;&#1080;&#1090; &#1085;&#1072; &#1076;&#1086;&#1076;&#1072;&#1090;&#1082;&#1086;&#1074;&#1110; &#1087;&#1086;&#1089;&#1083;&#1091;&#1075;&#1080;</text><polygon fill="#181818" points="115,500.0234,105,504.0234,115,508.0234,111,504.0234" style="stroke:#181818;stroke-width:1.0;"/><line style="stroke:#181818;stroke-width:1.0;" x1="109" x2="879.5" y1="504.0234" y2="504.0234"/><text fill="#000000" font-family="sans-serif" font-size="13" lengthAdjust="spacing" textLength="267" x="121" y="498.9575">[&#1057;&#1077;&#1088;&#1074;&#1110;&#1089;] &#1042;&#1110;&#1076;&#1087;&#1088;&#1072;&#1074;&#1083;&#1103;&#1108; &#1079;&#1072;&#1087;&#1080;&#1090; &#1085;&#1072; &#1074;&#1080;&#1082;&#1086;&#1085;&#1072;&#1085;&#1085;&#1103;</text><polygon fill="#181818" points="868.5,529.1563,878.5,533.1563,868.5,537.1563,872.5,533.1563" style="stroke:#181818;stroke-width:1.0;"/><line style="stroke:#181818;stroke-width:1.0;" x1="99" x2="874.5" y1="533.1563" y2="533.1563"/><text fill="#000000" font-family="sans-serif" font-size="13" lengthAdjust="spacing" textLength="241" x="106" y="528.0903">[&#1055;&#1077;&#1088;&#1089;&#1086;&#1085;&#1072;&#1083;] &#1055;&#1110;&#1076;&#1090;&#1074;&#1077;&#1088;&#1076;&#1078;&#1091;&#1108; &#1074;&#1080;&#1082;&#1086;&#1085;&#1072;&#1085;&#1085;&#1103;</text><polygon fill="#181818" points="38.5,558.2891,28.5,562.2891,38.5,566.2891,34.5,562.2891" style="stroke:#181818;stroke-width:1.0;"/><line style="stroke:#181818;stroke-width:1.0;" x1="32.5" x2="884.5" y1="562.2891" y2="562.2891"/><text fill="#000000" font-family="sans-serif" font-size="13" lengthAdjust="spacing" textLength="235" x="44.5" y="557.2231">[&#1057;&#1077;&#1088;&#1074;&#1110;&#1089;] &#1055;&#1086;&#1074;&#1110;&#1076;&#1086;&#1084;&#1083;&#1103;&#1108; &#1087;&#1088;&#1086; &#1074;&#1080;&#1082;&#1086;&#1085;&#1072;&#1085;&#1085;&#1103;</text><!--SRC=[bLH9JkDG4Dtx55_i-m98OT5N23kKXHLCAsf1f60XiJEnUjSYFIcz0iGDJ3eq4OxD5QfknAll1F_1Zc7bgLnlgFSh7CRZYQBVFEShdlBt8AnUtD4Z9tn59HMKKRvz_OEMjEOv5PlwX3AUKib944HdyIY-L7jqJolvHe-qfapHJnIX2r_J0fqAtCtsL7YkFe_7NqTdN_gNvt5qslhtBu0jmIENApsZqu9JfzFX91msju86r8Eg9uXJ_Mi_3azE-j7aOZICWg3NQwIhS2b1HngagjSBQhlKfmDRYDfNH_Nd0GIWJmdgArsEcqpCavjSEZ_uSEBrw2AC8ySY6mV0xTFGB2md1ni7y2I693pZFw8huncGYpSzXjGvBMegEoQ_WqQZEwtbmb6FUmfAmdL9_pbjv1aSH- -XvbjMJwx9eXlCGDAseXmz0FpYya5fDII3W3qcdQAEsChuIusSuUKphJeYPYVSozXVj7cHX6cdLDKOtr89leDKZzGvDWw6cEMScKRB76nT2xKmSEEKHOTJ8rBkZl7mcfKxLU1mkyNaQmpDnBDouk8rAFvWF3h56l2EtJecOjxQwI03apM1FZetuF0DGPGfojgYVtuyp2tM5GwtlUmYexaP46ivMXZjuNZRk8FD8S0HIdJsychbF3bqe4yJAVprzww0UDhzUBGi5HzvLrWy_MvKJELtbRFQw_LMkHXHTi2QAAy0]--></g></svg>
