<?xml version="1.0" encoding="us-ascii" standalone="no"?><svg xmlns="http://www.w3.org/2000/svg" xmlns:xlink="http://www.w3.org/1999/xlink" contentStyleType="text/css" height="481px" preserveAspectRatio="none" style="width:967px;height:481px;background:#FFFFFF;" version="1.1" viewBox="0 0 967 481" width="967px" zoomAndPan="magnify"><defs/><g><!--cluster ????????? ??????--><g id="cluster_&#1052;&#1086;&#1073;&#1110;&#1083;&#1100;&#1085;&#1080;&#1081; &#1043;&#1086;&#1090;&#1077;&#1083;&#1100;"><rect fill="none" height="298" rx="2.5" ry="2.5" style="stroke:#181818;stroke-width:1.0;" width="327" x="257" y="109.5"/><text fill="#000000" font-family="sans-serif" font-size="14" font-weight="bold" lengthAdjust="spacing" textLength="150" x="345.5" y="124.4951">&#1052;&#1086;&#1073;&#1110;&#1083;&#1100;&#1085;&#1080;&#1081; &#1043;&#1086;&#1090;&#1077;&#1083;&#1100;</text></g><g id="elem_UC1"><ellipse cx="420.5326" cy="271.3065" fill="#F1F1F1" rx="124.5326" ry="27.3065" style="stroke:#181818;stroke-width:0.5;"/><text fill="#000000" font-family="sans-serif" font-size="14" lengthAdjust="spacing" textLength="217" x="312.0326" y="274.1532">&#1054;&#1085;&#1083;&#1072;&#1081;&#1085; &#1073;&#1088;&#1086;&#1085;&#1102;&#1074;&#1072;&#1085;&#1085;&#1103; &#1085;&#1086;&#1084;&#1077;&#1088;&#1110;&#1074;</text></g><g id="elem_UC2"><ellipse cx="420.649" cy="362.6298" fill="#F1F1F1" rx="131.149" ry="28.6298" style="stroke:#181818;stroke-width:0.5;"/><text fill="#000000" font-family="sans-serif" font-size="14" lengthAdjust="spacing" textLength="231" x="305.149" y="365.4765">&#1059;&#1087;&#1088;&#1072;&#1074;&#1083;&#1110;&#1085;&#1085;&#1103; &#1085;&#1072;&#1103;&#1074;&#1085;&#1110;&#1089;&#1090;&#1102; &#1085;&#1086;&#1084;&#1077;&#1088;&#1110;&#1074;</text></g><g id="elem_UC3"><ellipse cx="420.3682" cy="176.3736" fill="#F1F1F1" rx="147.3682" ry="31.8736" style="stroke:#181818;stroke-width:0.5;"/><text fill="#000000" font-family="sans-serif" font-size="14" lengthAdjust="spacing" textLength="265" x="287.8682" y="179.2203">&#1047;&#1074;&#1077;&#1088;&#1085;&#1077;&#1085;&#1085;&#1103; &#1076;&#1086; &#1087;&#1077;&#1088;&#1089;&#1086;&#1085;&#1072;&#1083;&#1091; &#1095;&#1077;&#1088;&#1077;&#1079; &#1095;&#1072;&#1090;</text></g><!--entity Guest--><g id="elem_Guest"><ellipse cx="61.5" cy="190" fill="#F1F1F1" rx="8" ry="8" style="stroke:#181818;stroke-width:0.5;"/><path d="M61.5,198 L61.5,225 M48.5,206 L74.5,206 M61.5,225 L48.5,240 M61.5,225 L74.5,240 " fill="none" style="stroke:#181818;stroke-width:0.5;"/><text fill="#000000" font-family="sans-serif" font-size="14" lengthAdjust="spacing" textLength="39" x="42" y="254.4951">&#1043;&#1110;&#1089;&#1090;&#1100;</text></g><!--entity Staff--><g id="elem_Staff"><ellipse cx="819" cy="14" fill="#F1F1F1" rx="8" ry="8" style="stroke:#181818;stroke-width:0.5;"/><path d="M819,22 L819,49 M806,30 L832,30 M819,49 L806,64 M819,49 L832,64 " fill="none" style="stroke:#181818;stroke-width:0.5;"/><text fill="#000000" font-family="sans-serif" font-size="14" lengthAdjust="spacing" textLength="72" x="783" y="78.4951">&#1055;&#1077;&#1088;&#1089;&#1086;&#1085;&#1072;&#1083;</text></g><!--entity Administrator--><g id="elem_Administrator"><ellipse cx="61.5" cy="333" fill="#F1F1F1" rx="8" ry="8" style="stroke:#181818;stroke-width:0.5;"/><path d="M61.5,341 L61.5,368 M48.5,349 L74.5,349 M61.5,368 L48.5,383 M61.5,368 L74.5,383 " fill="none" style="stroke:#181818;stroke-width:0.5;"/><text fill="#000000" font-family="sans-serif" font-size="14" lengthAdjust="spacing" textLength="111" x="6" y="397.4951">&#1040;&#1076;&#1084;&#1110;&#1085;&#1110;&#1089;&#1090;&#1088;&#1072;&#1090;&#1086;&#1088;</text></g><g id="elem_GMN15"><path d="M678,238 L678,278.497 L542.888,276.705 L678,286.497 L678,338.7969 A0,0 0 0 0 678,338.7969 L960,338.7969 A0,0 0 0 0 960,338.7969 L960,248 L950,238 L678,238 A0,0 0 0 0 678,238 " fill="#FEFFDD" style="stroke:#181818;stroke-width:0.5;"/><path d="M950,238 L950,248 L960,248 L950,238 " fill="#FEFFDD" style="stroke:#181818;stroke-width:0.5;"/><text fill="#000000" font-family="sans-serif" font-size="13" lengthAdjust="spacing" textLength="77" x="684" y="255.0669">&#1054;&#1089;&#1085;&#1086;&#1074;&#1085;&#1110; &#1076;&#1110;&#1111;:</text><text fill="#000000" font-family="sans-serif" font-size="13" lengthAdjust="spacing" textLength="126" x="684" y="270.1997">1. &#1047;&#1072;&#1087;&#1091;&#1089;&#1082; &#1076;&#1086;&#1076;&#1072;&#1090;&#1082;&#1091;</text><text fill="#000000" font-family="sans-serif" font-size="13" lengthAdjust="spacing" textLength="115" x="684" y="285.3325">2. &#1055;&#1086;&#1096;&#1091;&#1082; &#1085;&#1086;&#1084;&#1077;&#1088;&#1110;&#1074;</text><text fill="#000000" font-family="sans-serif" font-size="13" lengthAdjust="spacing" textLength="109" x="684" y="300.4653">3. &#1042;&#1074;&#1077;&#1076;&#1077;&#1085;&#1085;&#1103; &#1076;&#1072;&#1090;</text><text fill="#000000" font-family="sans-serif" font-size="13" lengthAdjust="spacing" textLength="175" x="684" y="315.5981">4. &#1042;&#1080;&#1073;&#1110;&#1088; &#1090;&#1072; &#1086;&#1087;&#1083;&#1072;&#1090;&#1072; &#1085;&#1086;&#1084;&#1077;&#1088;&#1072;</text><text fill="#000000" font-family="sans-serif" font-size="13" lengthAdjust="spacing" textLength="261" x="684" y="330.731">5. &#1055;&#1110;&#1076;&#1090;&#1074;&#1077;&#1088;&#1076;&#1078;&#1077;&#1085;&#1085;&#1103; &#1090;&#1072; &#1074;&#1110;&#1076;&#1089;&#1083;&#1110;&#1076;&#1082;&#1086;&#1074;&#1091;&#1074;&#1072;&#1085;&#1085;&#1103;</text></g><g id="elem_GMN18"><path d="M703.5,374 L703.5,402.5434 L527.234,379.0334 L703.5,410.5434 L703.5,474.7969 A0,0 0 0 0 703.5,474.7969 L934.5,474.7969 A0,0 0 0 0 934.5,474.7969 L934.5,384 L924.5,374 L703.5,374 A0,0 0 0 0 703.5,374 " fill="#FEFFDD" style="stroke:#181818;stroke-width:0.5;"/><path d="M924.5,374 L924.5,384 L934.5,384 L924.5,374 " fill="#FEFFDD" style="stroke:#181818;stroke-width:0.5;"/><text fill="#000000" font-family="sans-serif" font-size="13" lengthAdjust="spacing" textLength="77" x="709.5" y="391.0669">&#1054;&#1089;&#1085;&#1086;&#1074;&#1085;&#1110; &#1076;&#1110;&#1111;:</text><text fill="#000000" font-family="sans-serif" font-size="13" lengthAdjust="spacing" textLength="114" x="709.5" y="406.1997">1. &#1042;&#1093;&#1110;&#1076; &#1074; &#1089;&#1080;&#1089;&#1090;&#1077;&#1084;&#1091;</text><text fill="#000000" font-family="sans-serif" font-size="13" lengthAdjust="spacing" textLength="149" x="709.5" y="421.3325">2. &#1055;&#1077;&#1088;&#1077;&#1075;&#1083;&#1103;&#1076; &#1085;&#1072;&#1103;&#1074;&#1085;&#1086;&#1089;&#1090;&#1110;</text><text fill="#000000" font-family="sans-serif" font-size="13" lengthAdjust="spacing" textLength="173" x="709.5" y="436.4653">3. &#1055;&#1083;&#1072;&#1085;&#1091;&#1074;&#1072;&#1085;&#1085;&#1103; &#1079;&#1072;&#1082;&#1091;&#1087;&#1110;&#1074;&#1077;&#1083;&#1100;</text><text fill="#000000" font-family="sans-serif" font-size="13" lengthAdjust="spacing" textLength="161" x="709.5" y="451.5981">4. &#1057;&#1090;&#1074;&#1086;&#1088;&#1077;&#1085;&#1085;&#1103; &#1079;&#1072;&#1084;&#1086;&#1074;&#1083;&#1077;&#1085;&#1100;</text><text fill="#000000" font-family="sans-serif" font-size="13" lengthAdjust="spacing" textLength="210" x="709.5" y="466.731">5. &#1042;&#1110;&#1076;&#1089;&#1083;&#1110;&#1076;&#1082;&#1086;&#1074;&#1091;&#1074;&#1072;&#1085;&#1085;&#1103; &#1079;&#1072;&#1084;&#1086;&#1074;&#1083;&#1077;&#1085;&#1100;</text></g><g id="elem_GMN21"><path d="M730.5,116.5 L730.5,159.263 L565.487,170.327 L730.5,167.263 L730.5,202.1641 A0,0 0 0 0 730.5,202.1641 L907.5,202.1641 A0,0 0 0 0 907.5,202.1641 L907.5,126.5 L897.5,116.5 L730.5,116.5 A0,0 0 0 0 730.5,116.5 " fill="#FEFFDD" style="stroke:#181818;stroke-width:0.5;"/><path d="M897.5,116.5 L897.5,126.5 L907.5,126.5 L897.5,116.5 " fill="#FEFFDD" style="stroke:#181818;stroke-width:0.5;"/><text fill="#000000" font-family="sans-serif" font-size="13" lengthAdjust="spacing" textLength="77" x="736.5" y="133.5669">&#1054;&#1089;&#1085;&#1086;&#1074;&#1085;&#1110; &#1076;&#1110;&#1111;:</text><text fill="#000000" font-family="sans-serif" font-size="13" lengthAdjust="spacing" textLength="116" x="736.5" y="148.6997">1. &#1042;&#1110;&#1076;&#1082;&#1088;&#1080;&#1090;&#1090;&#1103; &#1095;&#1072;&#1090;&#1091;</text><text fill="#000000" font-family="sans-serif" font-size="13" lengthAdjust="spacing" textLength="148" x="736.5" y="163.8325">2. &#1053;&#1072;&#1076;&#1089;&#1080;&#1083;&#1072;&#1085;&#1085;&#1103; &#1079;&#1072;&#1087;&#1080;&#1090;&#1091;</text><text fill="#000000" font-family="sans-serif" font-size="13" lengthAdjust="spacing" textLength="156" x="736.5" y="178.9653">3. &#1042;&#1110;&#1076;&#1087;&#1086;&#1074;&#1110;&#1076;&#1100; &#1087;&#1077;&#1088;&#1089;&#1086;&#1085;&#1072;&#1083;&#1091;</text><text fill="#000000" font-family="sans-serif" font-size="13" lengthAdjust="spacing" textLength="139" x="736.5" y="194.0981">4. &#1042;&#1080;&#1082;&#1086;&#1085;&#1072;&#1085;&#1085;&#1103; &#1079;&#1072;&#1087;&#1080;&#1090;&#1110;&#1074;</text></g><!--link Guest to UC1--><g id="link_Guest_UC1"><path d="M81.2577,223.056 C98.357,226.243 124.331,230.95 147,234.5 C201.244,242.994 255.7942,250.5409 305.9822,257.1389 " fill="none" id="Guest-to-UC1" style="stroke:#181818;stroke-width:1.0;"/><polygon fill="#181818" points="311.931,257.921,303.5292,252.782,306.9737,257.2693,302.4864,260.7138,311.931,257.921" style="stroke:#181818;stroke-width:1.0;"/><text fill="#000000" font-family="sans-serif" font-size="13" lengthAdjust="spacing" textLength="92" x="148" y="230.5669">&#1042;&#1080;&#1082;&#1086;&#1088;&#1080;&#1089;&#1090;&#1086;&#1074;&#1091;&#1108;</text></g><!--reverse link UC3 to Guest--><g id="link_UC3_Guest"><path d="M285.0811,192.6905 C206.6151,202.1415 120.071,212.566 81.1912,217.249 " fill="none" id="UC3-backto-Guest" style="stroke:#181818;stroke-width:1.0;stroke-dasharray:7.0,7.0;"/><polygon fill="#181818" points="291.038,191.973,281.6243,189.0779,286.0739,192.5709,282.5809,197.0205,291.038,191.973" style="stroke:#181818;stroke-width:1.0;"/><text fill="#000000" font-family="sans-serif" font-size="13" lengthAdjust="spacing" textLength="92" x="148" y="194.5669">&#1042;&#1080;&#1082;&#1086;&#1088;&#1080;&#1089;&#1090;&#1086;&#1074;&#1091;&#1108;</text></g><!--reverse link UC3 to Staff--><g id="link_UC3_Staff"><path d="M507.4265,147.6769 C593.4145,118.8339 720.286,76.277 782.922,55.266 " fill="none" id="UC3-backto-Staff" style="stroke:#181818;stroke-width:1.0;stroke-dasharray:7.0,7.0;"/><polygon fill="#181818" points="501.738,149.585,511.5428,150.5152,506.4784,147.9949,508.9987,142.9305,501.738,149.585" style="stroke:#181818;stroke-width:1.0;"/><text fill="#000000" font-family="sans-serif" font-size="13" lengthAdjust="spacing" textLength="46" x="601" y="98.5669">&#1056;&#1077;&#1072;&#1075;&#1091;&#1108;</text></g><!--link Administrator to UC2--><g id="link_Administrator_UC2"><path d="M117.109,362.5 C162.815,362.5 223.906,362.5 283.287,362.5 " fill="none" id="Administrator-to-UC2" style="stroke:#181818;stroke-width:1.0;"/><polygon fill="#181818" points="289.287,362.5,280.287,358.5,284.287,362.5,280.287,366.5,289.287,362.5" style="stroke:#181818;stroke-width:1.0;"/><text fill="#000000" font-family="sans-serif" font-size="13" lengthAdjust="spacing" textLength="40" x="174" y="358.5669">&#1050;&#1077;&#1088;&#1091;&#1108;</text></g><!--SRC=[XLFBRjfG4DtxAqQisaMG0iqcYqfL5_s0A3is5Z7K2Z48cqLKLGAigbsWK2ML8rLjQDKVS0aqXESlpFsZdhdN1YoY86HXtpbpvioPkJMd4b1GfwPRVH_GcTjqoe5Rzop_tFKQTjE-e8PTFhUhpabmMND8mhPNhJcMPPU3UfFUjHm_8Dkd7D-eI7LKL_LoIUmai2iL4nlmMBLLXvUyu9XdAUBDsONhkNxGjELB8x_oYESguaN2rkPOTNcfsZdBMbS7xWUu_W8tKprmJlYH-0QmBe_bA4SVBAAMxvHjtw4NfsyFNnhwEu1daF382q9-MnIfAnxYQ86tFk5loNCjD-9XZh8qXOJc3wz46V9ceZNDZ5KVHwdqgpranOJi5Zc003nEgKQy95vbJLCXgSyQEEO7UOKneFneMMO81mUl2OtICV4r39cAQJmH9M0Ogb1zIu3vLYClqE9pK3Ey3FGN2iTyhyFPoPdI1G5zrw85Oddrm4aMgrv9fTsX8N55suH6uTNjSSaxp1DyY65h2C1KEu17PZzLOSah83w0p2ygb6Z6rv9Np4iZS14fMnuYk-IzoficiIogJU2B2SahsGBpiURYkEGTIHsGZX0pKndnlpMdIHZgU4UFVYJcYMMR5TfjlB2dyMlrIQZ0J02PEOnn2zPzcw7Ves9VOEj5Wo6oQ95nOA0tUx6jXVW1ht0GnaRQ85mEuybltU5ICszXvrhYJ0u5UQJbFTll4tcx5XJtMg2vzHfsyUid2vvwy1CbHCF4zBYfkz89OR83ccMb5OhctXENQBCHq-HmXmrE_GS0]--></g></svg>